<mxfile host="app.diagrams.net" agent="Mozilla/5.0 (Windows NT 10.0; Win64; x64) AppleWebKit/537.36 (KHTML, like Gecko) Chrome/132.0.0.0 YaBrowser/25.2.0.0 Safari/537.36" version="26.1.1">
  <diagram name="Страница — 1" id="539gpfYdzuHKXzHbNKHG">
    <mxGraphModel dx="1290" dy="1736" grid="1" gridSize="10" guides="1" tooltips="1" connect="1" arrows="1" fold="1" page="1" pageScale="1" pageWidth="827" pageHeight="1169" math="0" shadow="0">
      <root>
        <mxCell id="0" />
        <mxCell id="1" parent="0" />
        <mxCell id="mENMucv77-nW-wxAWM_9-8" value="Заполнить заявку на помощь" style="ellipse;whiteSpace=wrap;html=1;align=center;" parent="1" vertex="1">
          <mxGeometry x="190" y="40" width="100" height="50" as="geometry" />
        </mxCell>
        <mxCell id="mENMucv77-nW-wxAWM_9-9" value="Помочь ребенку" style="ellipse;whiteSpace=wrap;html=1;align=center;" parent="1" vertex="1">
          <mxGeometry x="140" y="230" width="100" height="40" as="geometry" />
        </mxCell>
        <mxCell id="mENMucv77-nW-wxAWM_9-10" value="Стать волонтером" style="ellipse;whiteSpace=wrap;html=1;align=center;" parent="1" vertex="1">
          <mxGeometry x="190" y="310" width="100" height="40" as="geometry" />
        </mxCell>
        <mxCell id="mENMucv77-nW-wxAWM_9-11" value="Просмотреть отчеты" style="ellipse;whiteSpace=wrap;html=1;align=center;" parent="1" vertex="1">
          <mxGeometry x="190" y="390" width="100" height="40" as="geometry" />
        </mxCell>
        <mxCell id="mENMucv77-nW-wxAWM_9-12" value="Отправить комментарий" style="ellipse;whiteSpace=wrap;html=1;align=center;" parent="1" vertex="1">
          <mxGeometry x="170" y="460" width="100" height="40" as="geometry" />
        </mxCell>
        <mxCell id="mENMucv77-nW-wxAWM_9-13" value="Задать вопрос" style="ellipse;whiteSpace=wrap;html=1;align=center;" parent="1" vertex="1">
          <mxGeometry x="170" y="550" width="100" height="40" as="geometry" />
        </mxCell>
        <mxCell id="mENMucv77-nW-wxAWM_9-14" value="Просмотреть информацию,&amp;nbsp; кому оказана помощь" style="ellipse;whiteSpace=wrap;html=1;align=center;" parent="1" vertex="1">
          <mxGeometry x="190" y="-50" width="120" height="60" as="geometry" />
        </mxCell>
        <mxCell id="mENMucv77-nW-wxAWM_9-15" value="Перевести деньги в фонд" style="ellipse;whiteSpace=wrap;html=1;align=center;" parent="1" vertex="1">
          <mxGeometry x="320" y="170" width="100" height="50" as="geometry" />
        </mxCell>
        <mxCell id="mENMucv77-nW-wxAWM_9-16" value="Оказать помощь семье" style="ellipse;whiteSpace=wrap;html=1;align=center;" parent="1" vertex="1">
          <mxGeometry x="310" y="105" width="100" height="50" as="geometry" />
        </mxCell>
        <mxCell id="mENMucv77-nW-wxAWM_9-20" value="&amp;lt;&amp;lt;include&amp;gt;&amp;gt;" style="html=1;verticalAlign=bottom;labelBackgroundColor=none;endArrow=open;endFill=0;dashed=1;rounded=0;exitX=1;exitY=0.5;exitDx=0;exitDy=0;entryX=0;entryY=0.5;entryDx=0;entryDy=0;" parent="1" source="mENMucv77-nW-wxAWM_9-9" target="mENMucv77-nW-wxAWM_9-16" edge="1">
          <mxGeometry x="0.0345" y="16" width="160" relative="1" as="geometry">
            <mxPoint x="330" y="200" as="sourcePoint" />
            <mxPoint x="490" y="200" as="targetPoint" />
            <Array as="points" />
            <mxPoint as="offset" />
          </mxGeometry>
        </mxCell>
        <mxCell id="mENMucv77-nW-wxAWM_9-21" value="&amp;lt;&amp;lt;include&amp;gt;&amp;gt;" style="html=1;verticalAlign=bottom;labelBackgroundColor=none;endArrow=open;endFill=0;dashed=1;rounded=0;exitX=1;exitY=0.5;exitDx=0;exitDy=0;entryX=0.012;entryY=0.715;entryDx=0;entryDy=0;entryPerimeter=0;" parent="1" source="mENMucv77-nW-wxAWM_9-9" target="mENMucv77-nW-wxAWM_9-15" edge="1">
          <mxGeometry x="0.2397" y="-30" width="160" relative="1" as="geometry">
            <mxPoint x="330" y="200" as="sourcePoint" />
            <mxPoint x="490" y="200" as="targetPoint" />
            <mxPoint as="offset" />
          </mxGeometry>
        </mxCell>
        <mxCell id="mENMucv77-nW-wxAWM_9-22" value="" style="edgeStyle=none;html=1;endArrow=none;verticalAlign=bottom;rounded=0;exitX=0.072;exitY=0.772;exitDx=0;exitDy=0;exitPerimeter=0;entryX=0;entryY=1;entryDx=0;entryDy=0;" parent="1" source="mENMucv77-nW-wxAWM_9-14" target="mENMucv77-nW-wxAWM_9-8" edge="1">
          <mxGeometry width="160" relative="1" as="geometry">
            <mxPoint x="330" y="200" as="sourcePoint" />
            <mxPoint x="490" y="200" as="targetPoint" />
            <Array as="points">
              <mxPoint x="70" y="220" />
            </Array>
          </mxGeometry>
        </mxCell>
        <mxCell id="mENMucv77-nW-wxAWM_9-24" value="" style="edgeStyle=none;html=1;endArrow=none;verticalAlign=bottom;rounded=0;entryX=0;entryY=0.5;entryDx=0;entryDy=0;exitX=0;exitY=0.5;exitDx=0;exitDy=0;" parent="1" source="mENMucv77-nW-wxAWM_9-9" target="mENMucv77-nW-wxAWM_9-10" edge="1">
          <mxGeometry width="160" relative="1" as="geometry">
            <mxPoint x="90" y="211" as="sourcePoint" />
            <mxPoint x="380" y="211.2" as="targetPoint" />
            <Array as="points">
              <mxPoint x="70" y="220" />
            </Array>
          </mxGeometry>
        </mxCell>
        <mxCell id="mENMucv77-nW-wxAWM_9-25" value="" style="edgeStyle=none;html=1;endArrow=none;verticalAlign=bottom;rounded=0;entryX=0;entryY=0.5;entryDx=0;entryDy=0;exitX=0;exitY=0.5;exitDx=0;exitDy=0;" parent="1" source="mENMucv77-nW-wxAWM_9-12" target="mENMucv77-nW-wxAWM_9-11" edge="1">
          <mxGeometry width="160" relative="1" as="geometry">
            <mxPoint x="330" y="200" as="sourcePoint" />
            <mxPoint x="490" y="200" as="targetPoint" />
            <Array as="points">
              <mxPoint x="70" y="220" />
            </Array>
          </mxGeometry>
        </mxCell>
        <mxCell id="mENMucv77-nW-wxAWM_9-26" value="" style="edgeStyle=none;html=1;endArrow=none;verticalAlign=bottom;rounded=0;entryX=0;entryY=0.5;entryDx=0;entryDy=0;" parent="1" target="mENMucv77-nW-wxAWM_9-13" edge="1">
          <mxGeometry width="160" relative="1" as="geometry">
            <mxPoint x="70" y="220" as="sourcePoint" />
            <mxPoint x="490" y="200" as="targetPoint" />
          </mxGeometry>
        </mxCell>
        <mxCell id="mENMucv77-nW-wxAWM_9-31" value="Пользователь" style="shape=umlActor;html=1;verticalLabelPosition=bottom;verticalAlign=top;align=center;" parent="1" vertex="1">
          <mxGeometry x="30" y="200" width="30" height="60" as="geometry" />
        </mxCell>
        <mxCell id="mENMucv77-nW-wxAWM_9-34" value="Админ" style="shape=umlActor;html=1;verticalLabelPosition=bottom;verticalAlign=top;align=center;" parent="1" vertex="1">
          <mxGeometry x="880" y="210" width="30" height="50" as="geometry" />
        </mxCell>
        <mxCell id="7xTTrSnwsfRjKrROWP4p-1" value="Редактирование анкеты семьи" style="ellipse;whiteSpace=wrap;html=1;" parent="1" vertex="1">
          <mxGeometry x="460" y="-30" width="100" height="50" as="geometry" />
        </mxCell>
        <mxCell id="7xTTrSnwsfRjKrROWP4p-2" value="Внести изменения в статус заявок на помощь" style="ellipse;whiteSpace=wrap;html=1;" parent="1" vertex="1">
          <mxGeometry x="485" y="150" width="105" height="70" as="geometry" />
        </mxCell>
        <mxCell id="7xTTrSnwsfRjKrROWP4p-3" value="Загрузить отчет" style="ellipse;whiteSpace=wrap;html=1;" parent="1" vertex="1">
          <mxGeometry x="490" y="250" width="95" height="50" as="geometry" />
        </mxCell>
        <mxCell id="7xTTrSnwsfRjKrROWP4p-4" value="Разместить видео" style="ellipse;whiteSpace=wrap;html=1;" parent="1" vertex="1">
          <mxGeometry x="450" y="-110" width="120" height="50" as="geometry" />
        </mxCell>
        <mxCell id="7xTTrSnwsfRjKrROWP4p-11" value="" style="endArrow=none;html=1;rounded=0;entryX=1;entryY=0.5;entryDx=0;entryDy=0;" parent="1" target="7xTTrSnwsfRjKrROWP4p-1" edge="1">
          <mxGeometry width="50" height="50" relative="1" as="geometry">
            <mxPoint x="880" y="230" as="sourcePoint" />
            <mxPoint x="430" y="160" as="targetPoint" />
          </mxGeometry>
        </mxCell>
        <mxCell id="7xTTrSnwsfRjKrROWP4p-12" value="" style="endArrow=none;html=1;rounded=0;entryX=1;entryY=0.5;entryDx=0;entryDy=0;" parent="1" target="7xTTrSnwsfRjKrROWP4p-3" edge="1">
          <mxGeometry width="50" height="50" relative="1" as="geometry">
            <mxPoint x="880" y="230" as="sourcePoint" />
            <mxPoint x="430" y="160" as="targetPoint" />
          </mxGeometry>
        </mxCell>
        <mxCell id="7xTTrSnwsfRjKrROWP4p-13" value="&amp;lt;&amp;lt;include&amp;gt;&amp;gt;" style="html=1;verticalAlign=bottom;labelBackgroundColor=none;endArrow=open;endFill=0;dashed=1;rounded=0;entryX=0.034;entryY=0.664;entryDx=0;entryDy=0;entryPerimeter=0;exitX=1;exitY=0.5;exitDx=0;exitDy=0;" parent="1" source="mENMucv77-nW-wxAWM_9-8" target="7xTTrSnwsfRjKrROWP4p-1" edge="1">
          <mxGeometry width="160" relative="1" as="geometry">
            <mxPoint x="320" y="180" as="sourcePoint" />
            <mxPoint x="480" y="180" as="targetPoint" />
            <Array as="points" />
          </mxGeometry>
        </mxCell>
        <mxCell id="7xTTrSnwsfRjKrROWP4p-14" value="&amp;lt;&amp;lt;extend&amp;gt;&amp;gt;" style="html=1;verticalAlign=bottom;labelBackgroundColor=none;endArrow=open;endFill=0;dashed=1;rounded=0;entryX=0.964;entryY=0.7;entryDx=0;entryDy=0;entryPerimeter=0;exitX=0;exitY=0.5;exitDx=0;exitDy=0;" parent="1" source="7xTTrSnwsfRjKrROWP4p-3" target="mENMucv77-nW-wxAWM_9-11" edge="1">
          <mxGeometry x="-0.1539" y="-7" width="160" relative="1" as="geometry">
            <mxPoint x="320" y="180" as="sourcePoint" />
            <mxPoint x="480" y="180" as="targetPoint" />
            <mxPoint as="offset" />
          </mxGeometry>
        </mxCell>
        <mxCell id="7xTTrSnwsfRjKrROWP4p-15" value="&amp;lt;&amp;lt;include&amp;gt;&amp;gt;" style="html=1;verticalAlign=bottom;labelBackgroundColor=none;endArrow=open;endFill=0;dashed=1;rounded=0;exitX=1;exitY=0.5;exitDx=0;exitDy=0;entryX=0;entryY=0.5;entryDx=0;entryDy=0;" parent="1" source="mENMucv77-nW-wxAWM_9-10" target="7xTTrSnwsfRjKrROWP4p-2" edge="1">
          <mxGeometry width="160" relative="1" as="geometry">
            <mxPoint x="320" y="180" as="sourcePoint" />
            <mxPoint x="480" y="180" as="targetPoint" />
            <Array as="points" />
          </mxGeometry>
        </mxCell>
        <mxCell id="pUelRnxIm94RxmOJPpRa-1" value="" style="endArrow=none;html=1;rounded=0;exitX=0.973;exitY=0.623;exitDx=0;exitDy=0;exitPerimeter=0;" parent="1" source="7xTTrSnwsfRjKrROWP4p-2" edge="1">
          <mxGeometry width="50" height="50" relative="1" as="geometry">
            <mxPoint x="380" y="280" as="sourcePoint" />
            <mxPoint x="880" y="230" as="targetPoint" />
          </mxGeometry>
        </mxCell>
        <mxCell id="pUelRnxIm94RxmOJPpRa-4" value="Авторизоваться в системе" style="ellipse;whiteSpace=wrap;html=1;" parent="1" vertex="1">
          <mxGeometry x="450" y="-260" width="120" height="50" as="geometry" />
        </mxCell>
        <mxCell id="pUelRnxIm94RxmOJPpRa-5" value="Разместить статью в блог" style="ellipse;whiteSpace=wrap;html=1;" parent="1" vertex="1">
          <mxGeometry x="471.25" y="320" width="132.5" height="60" as="geometry" />
        </mxCell>
        <mxCell id="pUelRnxIm94RxmOJPpRa-6" value="Модерация комментариев" style="ellipse;whiteSpace=wrap;html=1;" parent="1" vertex="1">
          <mxGeometry x="477.5" y="510" width="120" height="50" as="geometry" />
        </mxCell>
        <mxCell id="pUelRnxIm94RxmOJPpRa-7" value="Сформировать отчет" style="ellipse;whiteSpace=wrap;html=1;" parent="1" vertex="1">
          <mxGeometry x="471.25" y="420" width="132.5" height="60" as="geometry" />
        </mxCell>
        <mxCell id="pUelRnxIm94RxmOJPpRa-8" value="Добавить нового сотрудника" style="ellipse;whiteSpace=wrap;html=1;" parent="1" vertex="1">
          <mxGeometry x="450" y="-180" width="120" height="50" as="geometry" />
        </mxCell>
        <mxCell id="pUelRnxIm94RxmOJPpRa-9" value="Загрузить благодарности" style="ellipse;whiteSpace=wrap;html=1;" parent="1" vertex="1">
          <mxGeometry x="471.25" y="590" width="132.5" height="60" as="geometry" />
        </mxCell>
        <mxCell id="pUelRnxIm94RxmOJPpRa-10" value="Добавить нужду" style="ellipse;whiteSpace=wrap;html=1;" parent="1" vertex="1">
          <mxGeometry x="465" y="60" width="132.5" height="60" as="geometry" />
        </mxCell>
        <mxCell id="pUelRnxIm94RxmOJPpRa-11" value="Зарегистрироваться в системе в роли администратора&amp;nbsp;" style="ellipse;whiteSpace=wrap;html=1;" parent="1" vertex="1">
          <mxGeometry x="430" y="-360" width="150" height="70" as="geometry" />
        </mxCell>
        <mxCell id="pUelRnxIm94RxmOJPpRa-13" value="" style="endArrow=none;html=1;rounded=0;entryX=0;entryY=0.3333333333333333;entryDx=0;entryDy=0;entryPerimeter=0;exitX=1;exitY=0.5;exitDx=0;exitDy=0;" parent="1" source="pUelRnxIm94RxmOJPpRa-8" target="mENMucv77-nW-wxAWM_9-34" edge="1">
          <mxGeometry width="50" height="50" relative="1" as="geometry">
            <mxPoint x="610" y="80" as="sourcePoint" />
            <mxPoint x="660" y="30" as="targetPoint" />
          </mxGeometry>
        </mxCell>
        <mxCell id="pUelRnxIm94RxmOJPpRa-14" value="" style="endArrow=none;html=1;rounded=0;entryX=0;entryY=0.3333333333333333;entryDx=0;entryDy=0;entryPerimeter=0;exitX=1;exitY=0.5;exitDx=0;exitDy=0;" parent="1" source="pUelRnxIm94RxmOJPpRa-4" target="mENMucv77-nW-wxAWM_9-34" edge="1">
          <mxGeometry width="50" height="50" relative="1" as="geometry">
            <mxPoint x="610" y="80" as="sourcePoint" />
            <mxPoint x="660" y="30" as="targetPoint" />
          </mxGeometry>
        </mxCell>
        <mxCell id="pUelRnxIm94RxmOJPpRa-15" value="" style="endArrow=none;html=1;rounded=0;entryX=0;entryY=0.3333333333333333;entryDx=0;entryDy=0;entryPerimeter=0;exitX=1;exitY=0.5;exitDx=0;exitDy=0;" parent="1" source="pUelRnxIm94RxmOJPpRa-11" target="mENMucv77-nW-wxAWM_9-34" edge="1">
          <mxGeometry width="50" height="50" relative="1" as="geometry">
            <mxPoint x="610" y="80" as="sourcePoint" />
            <mxPoint x="660" y="30" as="targetPoint" />
          </mxGeometry>
        </mxCell>
        <mxCell id="pUelRnxIm94RxmOJPpRa-16" value="" style="endArrow=none;html=1;rounded=0;entryX=0;entryY=0.3333333333333333;entryDx=0;entryDy=0;entryPerimeter=0;exitX=1;exitY=0.5;exitDx=0;exitDy=0;" parent="1" source="pUelRnxIm94RxmOJPpRa-5" target="mENMucv77-nW-wxAWM_9-34" edge="1">
          <mxGeometry width="50" height="50" relative="1" as="geometry">
            <mxPoint x="610" y="500" as="sourcePoint" />
            <mxPoint x="660" y="450" as="targetPoint" />
          </mxGeometry>
        </mxCell>
        <mxCell id="pUelRnxIm94RxmOJPpRa-17" value="" style="endArrow=none;html=1;rounded=0;exitX=1;exitY=0.5;exitDx=0;exitDy=0;" parent="1" source="pUelRnxIm94RxmOJPpRa-7" edge="1">
          <mxGeometry width="50" height="50" relative="1" as="geometry">
            <mxPoint x="610" y="500" as="sourcePoint" />
            <mxPoint x="880" y="230" as="targetPoint" />
          </mxGeometry>
        </mxCell>
        <mxCell id="pUelRnxIm94RxmOJPpRa-18" value="" style="endArrow=none;html=1;rounded=0;exitX=1;exitY=0.5;exitDx=0;exitDy=0;entryX=0;entryY=0.3333333333333333;entryDx=0;entryDy=0;entryPerimeter=0;" parent="1" source="pUelRnxIm94RxmOJPpRa-9" target="mENMucv77-nW-wxAWM_9-34" edge="1">
          <mxGeometry width="50" height="50" relative="1" as="geometry">
            <mxPoint x="610" y="500" as="sourcePoint" />
            <mxPoint x="750" y="220" as="targetPoint" />
          </mxGeometry>
        </mxCell>
        <mxCell id="pUelRnxIm94RxmOJPpRa-26" value="" style="endArrow=none;html=1;rounded=0;" parent="1" edge="1">
          <mxGeometry width="50" height="50" relative="1" as="geometry">
            <mxPoint x="840" y="800" as="sourcePoint" />
            <mxPoint x="840" y="-400" as="targetPoint" />
          </mxGeometry>
        </mxCell>
        <mxCell id="pUelRnxIm94RxmOJPpRa-27" value="" style="endArrow=none;html=1;rounded=0;" parent="1" edge="1">
          <mxGeometry width="50" height="50" relative="1" as="geometry">
            <mxPoint x="120" y="800" as="sourcePoint" />
            <mxPoint x="840" y="800" as="targetPoint" />
          </mxGeometry>
        </mxCell>
        <mxCell id="pUelRnxIm94RxmOJPpRa-28" value="" style="endArrow=none;html=1;rounded=0;" parent="1" edge="1">
          <mxGeometry width="50" height="50" relative="1" as="geometry">
            <mxPoint x="120" y="800" as="sourcePoint" />
            <mxPoint x="120" y="-400" as="targetPoint" />
          </mxGeometry>
        </mxCell>
        <mxCell id="pUelRnxIm94RxmOJPpRa-29" value="" style="endArrow=none;html=1;rounded=0;" parent="1" edge="1">
          <mxGeometry width="50" height="50" relative="1" as="geometry">
            <mxPoint x="120" y="-400" as="sourcePoint" />
            <mxPoint x="840" y="-400" as="targetPoint" />
          </mxGeometry>
        </mxCell>
        <mxCell id="3i5DglaIifwtilqOlHkw-1" value="&amp;lt;&amp;lt;include&amp;gt;&amp;gt;" style="html=1;verticalAlign=bottom;labelBackgroundColor=none;endArrow=open;endFill=0;dashed=1;rounded=0;entryX=0;entryY=0.5;entryDx=0;entryDy=0;" edge="1" parent="1" target="pUelRnxIm94RxmOJPpRa-10">
          <mxGeometry width="160" relative="1" as="geometry">
            <mxPoint x="290" y="65" as="sourcePoint" />
            <mxPoint x="473" y="13" as="targetPoint" />
            <Array as="points" />
          </mxGeometry>
        </mxCell>
        <mxCell id="3i5DglaIifwtilqOlHkw-2" value="" style="endArrow=none;html=1;rounded=0;" edge="1" parent="1">
          <mxGeometry width="50" height="50" relative="1" as="geometry">
            <mxPoint x="600" y="90" as="sourcePoint" />
            <mxPoint x="880" y="230" as="targetPoint" />
          </mxGeometry>
        </mxCell>
        <mxCell id="3i5DglaIifwtilqOlHkw-3" value="" style="endArrow=none;html=1;rounded=0;entryX=1;entryY=0.5;entryDx=0;entryDy=0;" edge="1" parent="1" target="7xTTrSnwsfRjKrROWP4p-4">
          <mxGeometry width="50" height="50" relative="1" as="geometry">
            <mxPoint x="880" y="230" as="sourcePoint" />
            <mxPoint x="680" y="60" as="targetPoint" />
          </mxGeometry>
        </mxCell>
        <mxCell id="3i5DglaIifwtilqOlHkw-4" value="&amp;lt;&amp;lt;extend&amp;gt;&amp;gt;" style="html=1;verticalAlign=bottom;labelBackgroundColor=none;endArrow=open;endFill=0;dashed=1;rounded=0;exitX=0;exitY=0.5;exitDx=0;exitDy=0;" edge="1" parent="1" source="pUelRnxIm94RxmOJPpRa-7">
          <mxGeometry x="-0.1539" y="-7" width="160" relative="1" as="geometry">
            <mxPoint x="470" y="520" as="sourcePoint" />
            <mxPoint x="290" y="420" as="targetPoint" />
            <mxPoint as="offset" />
          </mxGeometry>
        </mxCell>
        <mxCell id="3i5DglaIifwtilqOlHkw-5" value="&amp;lt;&amp;lt;extend&amp;gt;&amp;gt;" style="html=1;verticalAlign=bottom;labelBackgroundColor=none;endArrow=open;endFill=0;dashed=1;rounded=0;exitX=0;exitY=0.5;exitDx=0;exitDy=0;entryX=1;entryY=0.5;entryDx=0;entryDy=0;" edge="1" parent="1" target="mENMucv77-nW-wxAWM_9-12">
          <mxGeometry x="-0.1539" y="-7" width="160" relative="1" as="geometry">
            <mxPoint x="477.5" y="530" as="sourcePoint" />
            <mxPoint x="296.5" y="500" as="targetPoint" />
            <mxPoint as="offset" />
          </mxGeometry>
        </mxCell>
        <mxCell id="3i5DglaIifwtilqOlHkw-6" value="" style="endArrow=none;html=1;rounded=0;" edge="1" parent="1">
          <mxGeometry width="50" height="50" relative="1" as="geometry">
            <mxPoint x="600" y="530" as="sourcePoint" />
            <mxPoint x="880" y="230" as="targetPoint" />
          </mxGeometry>
        </mxCell>
      </root>
    </mxGraphModel>
  </diagram>
</mxfile>
